<?xml version="1.0" encoding="UTF-8" standalone="no"?>
<svg
   xmlns:dc="http://purl.org/dc/elements/1.1/"
   xmlns:cc="http://creativecommons.org/ns#"
   xmlns:rdf="http://www.w3.org/1999/02/22-rdf-syntax-ns#"
   xmlns:svg="http://www.w3.org/2000/svg"
   xmlns="http://www.w3.org/2000/svg"
   viewBox="0 0 238.85733 97.716901"
   height="97.716904"
   width="238.85733"
   xml:space="preserve"
   id="svg4485"
   version="1.1"><metadata
     id="metadata4491"><rdf:RDF><cc:Work
         rdf:about=""><dc:format>image/svg+xml</dc:format><dc:type
           rdf:resource="http://purl.org/dc/dcmitype/StillImage" /><dc:title></dc:title></cc:Work></rdf:RDF></metadata><defs
     id="defs4489"><clipPath
       id="clipPath4533"
       clipPathUnits="userSpaceOnUse"><path
         id="path4531"
         d="M 1450.45,0 H 96.0352 V 467.703 H 1450.45 Z" /></clipPath><clipPath
       id="clipPath4539"
       clipPathUnits="userSpaceOnUse"><path
         id="path4537"
         d="m 1855.5,637.805 c 0,-129.754 -497.58,-373.649 -1111.352,-373.649 -613.75,0 -1111.304,270.074 -1111.304,373.649 0,123.347 487.551,358.511 1111.304,359.226 C 1357.92,997.742 1855.5,787.336 1855.5,637.805 Z" /></clipPath><clipPath
       id="clipPath4561"
       clipPathUnits="userSpaceOnUse"><path
         id="path4559"
         d="M 1450.45,694.254 H 96.0352 V 1161.96 H 1450.45 Z" /></clipPath><clipPath
       id="clipPath4567"
       clipPathUnits="userSpaceOnUse"><path
         id="path4565"
         d="m 1855.5,637.805 c 0,-129.754 -497.58,-373.649 -1111.352,-373.649 -613.75,0 -1111.304,270.074 -1111.304,373.649 0,123.347 487.551,358.511 1111.304,359.226 C 1357.92,997.742 1855.5,787.336 1855.5,637.805 Z" /></clipPath></defs><g
     transform="matrix(1.3333333,0,0,-1.3333333,0,132.9377)"
     id="g4493"><g
       transform="scale(0.1)"
       id="g4495"><path
         id="path4497"
         style="fill:#ffffff;fill-opacity:1;fill-rule:nonzero;stroke:none"
         d="m 35.5195,517.121 c -11.2734,0 -26.87497,2.891 -35.5195,6.973 l 3.60547,17.031 c 8.16403,-3.594 19.19533,-6.953 32.15623,-6.953 13.6836,0 24.4805,4.805 24.4805,15.605 0,10.313 -10.7969,15.352 -23.043,20.157 -16.3203,6.484 -35.51951,15.351 -35.51951,35.527 0,22.324 19.92191,31.68 41.04301,31.68 11.9961,0 24.0039,-2.891 33.3632,-7.676 l -3.5976,-16.328 c -9.3633,4.316 -19.4531,6.953 -29.7656,6.953 -11.0313,0 -19.9219,-3.106 -19.9219,-13.438 0,-9.355 12.4805,-13.437 21.6055,-17.754 8.6289,-4.082 36.9609,-12.968 36.9609,-36.484 0,-21.601 -19.6758,-35.293 -45.8477,-35.293" /><path
         id="path4499"
         style="fill:#ffffff;fill-opacity:1;fill-rule:nonzero;stroke:none"
         d="m 120.723,587.688 h 54.25 c 2.144,18.007 -4.809,33.378 -24.25,33.378 -18.243,0 -28.797,-15.371 -30,-33.378 z m 75.129,2.89 c 0,-6.25 -0.723,-12.734 -2.407,-19.453 h -72.722 c 0.715,-22.07 10.8,-36.953 37.683,-36.953 12.485,0 23.52,2.871 32.883,6.719 l 2.883,-16.075 c -10.078,-4.804 -24.731,-7.695 -38.891,-7.695 -38.394,0 -56.6365,26.406 -56.6365,59.531 0,33.614 19.9185,60.489 52.8005,60.489 29.524,0 44.407,-20.157 44.407,-46.563" /><path
         id="path4501"
         style="fill:#ffffff;fill-opacity:1;fill-rule:nonzero;stroke:none"
         d="m 223.203,519.523 v 115.215 h 20.637 v -16.797 c 8.648,11.993 20.887,19.2 36.726,19.2 28.797,0 40.813,-26.407 40.813,-56.895 v -60.723 h -21.606 v 60.02 c 0,23.516 -6.968,40.078 -26.406,40.078 -12.722,0 -22.801,-8.164 -28.562,-15.605 v -84.493 h -21.602" /><path
         id="path4503"
         style="fill:#ffffff;fill-opacity:1;fill-rule:nonzero;stroke:none"
         d="m 429.121,550.246 v 66.484 c -5.516,2.168 -12.726,3.125 -20.398,3.125 -24.004,0 -39.368,-15.605 -39.368,-43.691 0,-25.195 9.122,-41.758 29.29,-41.758 13.668,0 24.238,8.164 30.476,15.84 z m 21.602,-30.723 H 430.32 v 15.84 c -8.64,-10.312 -20.64,-18.242 -37.683,-18.242 -26.641,0 -44.883,24.492 -44.883,59.043 0,38.652 25.437,60.977 58.562,60.977 9.36,0 16.086,-1.211 22.805,-3.125 v 84.961 h 21.602 V 519.523" /><path
         id="path4505"
         style="fill:#ffffff;fill-opacity:1;fill-rule:nonzero;stroke:none"
         d="m 497.371,587.688 h 54.25 c 2.156,18.007 -4.797,33.378 -24.25,33.378 -18.238,0 -28.797,-15.371 -30,-33.378 z m 75.141,2.89 c 0,-6.25 -0.727,-12.734 -2.407,-19.453 h -72.734 c 0.727,-22.07 10.805,-36.953 37.688,-36.953 12.48,0 23.527,2.871 32.879,6.719 l 2.882,-16.075 c -10.078,-4.804 -24.715,-7.695 -38.879,-7.695 -38.406,0 -56.648,26.406 -56.648,59.531 0,33.614 19.922,60.489 52.805,60.489 29.531,0 44.414,-20.157 44.414,-46.563" /><path
         id="path4507"
         style="fill:#ffffff;fill-opacity:1;fill-rule:nonzero;stroke:none"
         d="m 625.098,517.121 c -11.282,0 -26.883,2.891 -35.52,6.973 l 3.598,17.031 c 8.164,-3.594 19.195,-6.953 32.168,-6.953 13.672,0 24.469,4.805 24.469,15.605 0,10.313 -10.797,15.352 -23.036,20.157 -16.316,6.484 -35.515,15.351 -35.515,35.527 0,22.324 19.922,31.68 41.035,31.68 12.012,0 24.004,-2.891 33.355,-7.676 l -3.589,-16.328 c -9.36,4.316 -19.446,6.953 -29.766,6.953 -11.035,0 -19.926,-3.106 -19.926,-13.438 0,-9.355 12.484,-13.437 21.606,-17.754 8.64,-4.082 36.968,-12.968 36.968,-36.484 0,-21.601 -19.683,-35.293 -45.847,-35.293" /><path
         id="path4509"
         style="fill:#ffffff;fill-opacity:1;fill-rule:nonzero;stroke:none"
         d="m 758.164,547.844 v 21.367 c -9.609,-0.469 -17.766,-1.191 -25.93,-2.168 -13.433,-1.426 -24.004,-5.508 -24.004,-17.988 0,-10.801 6.719,-16.094 18.247,-16.094 12.476,0 23.757,6.25 31.687,14.883 z m 0.469,-13.906 c -6.707,-8.418 -21.121,-16.817 -38.399,-16.817 -18.957,0 -32.879,12.481 -32.879,31.934 0,21.113 16.075,31.679 41.036,33.359 10.332,0.723 20.41,0.957 29.773,0.957 v 5.039 c 0,19.453 -7.93,31.211 -26.887,31.211 -11.289,0 -21.367,-3.125 -30.484,-8.164 l -5.039,15.84 c 12,7.207 24.48,9.844 39.363,9.844 27.117,0 44.649,-17.286 44.649,-48.243 v -69.375 h -21.133 v 14.415" /><path
         id="path4511"
         style="fill:#ffffff;fill-opacity:1;fill-rule:nonzero;stroke:none"
         d="m 869.336,547.844 v 21.367 c -9.609,-0.469 -17.766,-1.191 -25.918,-2.168 -13.445,-1.426 -24.004,-5.508 -24.004,-17.988 0,-10.801 6.719,-16.094 18.242,-16.094 12.481,0 23.75,6.25 31.68,14.883 z m 0.477,-13.906 c -6.715,-8.418 -21.122,-16.817 -38.407,-16.817 -18.957,0 -32.883,12.481 -32.883,31.934 0,21.113 16.086,31.679 41.047,33.359 10.325,0.723 20.403,0.957 29.766,0.957 v 5.039 c 0,19.453 -7.93,31.211 -26.887,31.211 -11.277,0 -21.355,-3.125 -30.476,-8.164 l -5.039,15.84 c 11.992,7.207 24.472,9.844 39.355,9.844 27.129,0 44.649,-17.286 44.649,-48.243 v -69.375 h -21.125 v 14.415" /><path
         id="path4513"
         style="fill:#ffffff;fill-opacity:1;fill-rule:nonzero;stroke:none"
         d="m 938.098,549.289 c 0,-9.121 3.355,-14.394 12.246,-14.394 3.836,0 7.207,0.468 10.801,1.425 l 0.957,-16.074 c -5.039,-1.68 -10.801,-2.637 -17.524,-2.637 -20.152,0 -28.086,13.438 -28.086,30.723 v 170.645 h 21.606 V 549.289" /><path
         id="path4515"
         style="fill:#ffffff;fill-opacity:1;fill-rule:nonzero;stroke:none"
         d="m 1059.91,609.055 v -71.289 c 5.75,-2.149 11.52,-3.36 20.4,-3.36 26.16,0 39.37,17.52 39.37,43.438 0,23.301 -10.32,42.011 -32.16,42.011 -12.01,0 -21.13,-4.804 -27.61,-10.8 z m -21.6,109.922 h 21.6 v -94.805 c 6.97,7.441 18.24,12.969 32.88,12.969 29.28,0 48.49,-24.961 48.49,-59.043 0,-33.614 -21.36,-60.977 -60.97,-60.977 -15.36,0 -29.76,3.125 -42,8.399 v 193.457" /><path
         id="path4517"
         style="fill:#ffffff;fill-opacity:1;fill-rule:nonzero;stroke:none"
         d="m 1233.19,616.984 h -5.51 c -16.81,0 -29.05,-6.25 -37.69,-20.41 v -77.051 h -21.6 v 115.215 h 20.63 v -22.09 c 6.73,15.372 17.05,23.536 35.3,23.536 3.11,0 6.72,-0.489 8.87,-1.211 v -17.989" /><path
         id="path4519"
         style="fill:#ffffff;fill-opacity:1;fill-rule:nonzero;stroke:none"
         d="m 1267.99,587.688 h 54.24 c 2.16,18.007 -4.8,33.378 -24.24,33.378 -18.24,0 -28.81,-15.371 -30,-33.378 z m 75.13,2.89 c 0,-6.25 -0.73,-12.734 -2.41,-19.453 h -72.72 c 0.72,-22.07 10.8,-36.953 37.67,-36.953 12.48,0 23.53,2.871 32.89,6.719 l 2.88,-16.075 c -10.08,-4.804 -24.72,-7.695 -38.88,-7.695 -38.41,0 -56.65,26.406 -56.65,59.531 0,33.614 19.92,60.489 52.81,60.489 29.52,0 44.41,-20.157 44.41,-46.563" /><path
         id="path4521"
         style="fill:#ffffff;fill-opacity:1;fill-rule:nonzero;stroke:none"
         d="m 1465.03,601.379 c 1.43,-6.484 2.16,-13.691 2.16,-21.133 v -60.723 h -21.6 v 60.02 c 0,23.516 -5.52,40.078 -24.96,40.078 -12.72,0 -22.8,-8.164 -28.56,-15.605 v -84.493 h -21.6 v 115.215 h 20.63 v -16.797 c 8.65,11.993 20.89,19.2 36.73,19.2 16.08,0 26.88,-8.653 32.87,-22.559 9.61,14.16 22.57,22.559 41.29,22.559 28.81,0 40.33,-26.407 40.33,-56.895 v -60.723 h -21.6 v 60.02 c 0,23.516 -5.52,40.078 -24.97,40.078 -12,0 -22.8,-8.164 -30.72,-18.242" /><path
         id="path4523"
         style="fill:#ffffff;fill-opacity:1;fill-rule:nonzero;stroke:none"
         d="m 1590.78,587.688 h 54.25 c 2.16,18.007 -4.8,33.378 -24.25,33.378 -18.24,0 -28.8,-15.371 -30,-33.378 z m 75.14,2.89 c 0,-6.25 -0.72,-12.734 -2.4,-19.453 h -72.74 c 0.72,-22.07 10.8,-36.953 37.69,-36.953 12.48,0 23.52,2.871 32.88,6.719 l 2.88,-16.075 c -10.08,-4.804 -24.72,-7.695 -38.88,-7.695 -38.41,0 -56.65,26.406 -56.65,59.531 0,33.614 19.92,60.489 52.8,60.489 29.54,0 44.42,-20.157 44.42,-46.563" /><path
         id="path4525"
         style="fill:#ffffff;fill-opacity:1;fill-rule:nonzero;stroke:none"
         d="m 1693.26,519.523 v 115.215 h 20.65 v -16.797 c 8.63,11.993 20.88,19.2 36.72,19.2 28.8,0 40.8,-26.407 40.8,-56.895 v -60.723 h -21.61 v 60.02 c 0,23.516 -6.95,40.078 -26.4,40.078 -12.72,0 -22.79,-8.164 -28.56,-15.605 v -84.493 h -21.6" /><g
         id="g4527"><g
           clip-path="url(#clipPath4533)"
           id="g4529"><g
             clip-path="url(#clipPath4539)"
             id="g4535"><path
               id="path4541"
               style="fill:#ea6d15;fill-opacity:1;fill-rule:nonzero;stroke:none"
               d="m 611.594,259 v 757.57 h 21.824 V 259 h -21.824 v 0" /><path
               id="path4543"
               style="fill:#ea6d15;fill-opacity:1;fill-rule:nonzero;stroke:none"
               d="m 733.254,259 v 757.57 h 21.824 V 259 h -21.824 v 0" /><path
               id="path4545"
               style="fill:#ea6d15;fill-opacity:1;fill-rule:nonzero;stroke:none"
               d="m 854.922,259 v 757.57 h 21.824 V 259 h -21.824 v 0" /><path
               id="path4547"
               style="fill:#ea6d15;fill-opacity:1;fill-rule:nonzero;stroke:none"
               d="m 976.594,226.617 v 822.363 h 21.812 V 226.617 h -21.812 v 0" /><path
               id="path4549"
               style="fill:#ea6d15;fill-opacity:1;fill-rule:nonzero;stroke:none"
               d="m 1098.25,183.414 v 908.746 h 21.83 V 183.414 h -21.83 v 0" /><path
               id="path4551"
               style="fill:#ea6d15;fill-opacity:1;fill-rule:nonzero;stroke:none"
               d="m 489.934,226.598 v 822.382 h 21.812 V 226.598 h -21.812 v 0" /><path
               id="path4553"
               style="fill:#ea6d15;fill-opacity:1;fill-rule:nonzero;stroke:none"
               d="M 368.254,183.395 V 1092.19 H 390.09 V 183.395 h -21.836 v 0" /></g></g></g><g
         id="g4555"><g
           clip-path="url(#clipPath4561)"
           id="g4557"><g
             clip-path="url(#clipPath4567)"
             id="g4563"><path
               id="path4569"
               style="fill:#ea6d15;fill-opacity:1;fill-rule:nonzero;stroke:none"
               d="m 611.594,259 v 757.57 h 21.824 V 259 h -21.824 v 0" /><path
               id="path4571"
               style="fill:#ea6d15;fill-opacity:1;fill-rule:nonzero;stroke:none"
               d="m 733.254,259 v 757.57 h 21.824 V 259 h -21.824 v 0" /><path
               id="path4573"
               style="fill:#ea6d15;fill-opacity:1;fill-rule:nonzero;stroke:none"
               d="m 854.922,259 v 757.57 h 21.824 V 259 h -21.824 v 0" /><path
               id="path4575"
               style="fill:#ea6d15;fill-opacity:1;fill-rule:nonzero;stroke:none"
               d="m 976.594,226.617 v 822.363 h 21.812 V 226.617 h -21.812 v 0" /><path
               id="path4577"
               style="fill:#ea6d15;fill-opacity:1;fill-rule:nonzero;stroke:none"
               d="m 1098.25,183.414 v 908.746 h 21.83 V 183.414 h -21.83 v 0" /><path
               id="path4579"
               style="fill:#ea6d15;fill-opacity:1;fill-rule:nonzero;stroke:none"
               d="m 489.934,226.598 v 822.382 h 21.812 V 226.598 h -21.812 v 0" /><path
               id="path4581"
               style="fill:#ea6d15;fill-opacity:1;fill-rule:nonzero;stroke:none"
               d="M 368.254,183.395 V 1092.19 H 390.09 V 183.395 h -21.836 v 0" /></g></g></g></g></g></svg>